<?xml version="1.0" encoding="UTF-8" standalone="no"?>
<svg
   xmlns:dc="http://purl.org/dc/elements/1.1/"
   xmlns:cc="http://creativecommons.org/ns#"
   xmlns:rdf="http://www.w3.org/1999/02/22-rdf-syntax-ns#"
   xmlns:svg="http://www.w3.org/2000/svg"
   xmlns="http://www.w3.org/2000/svg"
   xmlns:sodipodi="http://sodipodi.sourceforge.net/DTD/sodipodi-0.dtd"
   xmlns:inkscape="http://www.inkscape.org/namespaces/inkscape"
   width="863.54468mm"
   height="228.27448mm"
   viewBox="0 0 863.54468 228.27448"
   version="1.1"
   id="svg8"
   inkscape:export-filename="C:\Users\backe\Pictures\Inkscape Stuff\LOGOS\JulianDynamics.png"
   inkscape:export-xdpi="96"
   inkscape:export-ydpi="96"
   inkscape:version="1.0.1 (3bc2e813f5, 2020-09-07)"
   sodipodi:docname="JulianDynamics5.svg">
  <defs
     id="defs2">
    <rect
       x="3.0238094"
       y="9.8273811"
       width="890.74139"
       height="316.58289"
       id="rect1121" />
    <rect
       x="3.0238094"
       y="9.8273811"
       width="933.07477"
       height="168.41621"
       id="rect1121-7" />
    <rect
       x="3.0238094"
       y="9.8273811"
       width="933.07477"
       height="168.41621"
       id="rect1163" />
    <rect
       x="3.0238094"
       y="9.8273811"
       width="933.07477"
       height="168.41621"
       id="rect1121-0" />
    <rect
       x="3.0238094"
       y="9.8273811"
       width="933.07477"
       height="168.41621"
       id="rect1367" />
  </defs>
  <sodipodi:namedview
     id="base"
     pagecolor="#ffffff"
     bordercolor="#666666"
     borderopacity="1.0"
     inkscape:pageopacity="0.0"
     inkscape:pageshadow="2"
     inkscape:zoom="0.24748737"
     inkscape:cx="1962.5278"
     inkscape:cy="-25.105815"
     inkscape:document-units="mm"
     inkscape:current-layer="layer1"
     inkscape:document-rotation="0"
     showgrid="false"
     showborder="false"
     inkscape:snap-bbox="true"
     inkscape:bbox-nodes="true"
     inkscape:window-width="1920"
     inkscape:window-height="1046"
     inkscape:window-x="-11"
     inkscape:window-y="-11"
     inkscape:window-maximized="1"
     fit-margin-top="0"
     fit-margin-left="0"
     fit-margin-right="0"
     fit-margin-bottom="0" />
  <metadata
     id="metadata5">
    <rdf:RDF>
      <cc:Work
         rdf:about="">
        <dc:format>image/svg+xml</dc:format>
        <dc:type
           rdf:resource="http://purl.org/dc/dcmitype/StillImage" />
        <dc:title></dc:title>
      </cc:Work>
    </rdf:RDF>
  </metadata>
  <g
     inkscape:label="Layer 1"
     inkscape:groupmode="layer"
     id="layer1"
     transform="translate(183.05434,-436.43804)">
    <path
       d="m 5110,8440 c 0,-5 -9,-10 -20,-10 -24,0 -88,-55 -90,-78 0,-9 -3,-81 -6,-159 l -6,-142 39,-4 38,-4 -37,-1 -38,-2 -1,-52 c -4,-198 -5,-194 39,-218 l 37,-21 -37,6 c -36,6 -38,4 -38,-20 0,-16 6,-25 16,-25 8,0 12,-5 9,-10 -4,-6 -11,-8 -16,-5 -5,4 -9,-12 -9,-34 v -41 h 125 125 v 75 c 0,58 -4,77 -15,81 -19,8 -20,34 -1,34 18,0 30,124 21,223 -3,40 -2,87 4,105 8,26 5,57 -10,130 -27,132 -24,128 -76,156 -51,29 -53,30 -53,16 z m 67,-65 c -5,-13 -137,-19 -137,-6 0,6 16,19 36,29 33,17 39,17 70,3 19,-8 33,-20 31,-26 z m 13,-39 c 0,-2 3,-11 6,-20 5,-14 -5,-16 -69,-16 -110,0 -107,3 -107,-100 0,-61 4,-90 13,-93 6,-3 2,-6 -10,-6 -22,-1 -23,2 -23,79 0,50 6,95 16,120 l 16,40 h 79 c 43,0 79,-2 79,-4 z m -123,-168 c -2,-18 -4,-6 -4,27 0,33 2,48 4,33 2,-15 2,-42 0,-60 z m 152,0 c 1,-36 -3,-48 -14,-48 -12,0 -15,13 -15,58 0,32 3,62 7,66 11,11 22,-24 22,-76 z m -169,-253 c 0,-16 -6,-25 -16,-25 -9,0 -14,6 -11,13 2,6 -3,17 -12,24 -14,11 -12,12 12,13 22,0 27,-4 27,-25 z m 160,8 c 0,-5 -5,-15 -10,-23 -8,-12 -10,-11 -10,8 0,12 5,22 10,22 6,0 10,-3 10,-7 z m -160,-93 c 11,-7 12,-12 3,-21 -13,-13 -57,6 -48,22 8,12 26,11 45,-1 z"
       id="path949-7"
       transform="matrix(0.0352778,0,0,-0.0352778,-268.603,734.492)"
       clip-path="none" />
    <path
       d="m 4045,8299 c -4,-6 -4,-13 -1,-16 8,-8 36,5 36,17 0,13 -27,13 -35,-1 z"
       id="path951-5"
       transform="matrix(0.0352778,0,0,-0.0352778,-268.603,734.492)"
       clip-path="none" />
    <path
       d="m 5277,8258 c -3,-23 -1,-66 4,-96 6,-30 8,-60 5,-68 -3,-8 1,-14 8,-14 9,0 17,18 21,50 l 7,50 h 77 c 122,0 117,11 113,-242 -1,-117 -6,-321 -10,-454 -7,-215 -10,-243 -28,-267 -10,-14 -23,-27 -28,-27 -13,0 -1,399 20,618 16,169 17,194 4,203 -8,5 -55,8 -105,7 l -90,-3 -5,-203 -5,-202 -157,-3 -158,-2 -2,205 -3,205 h -95 -95 l 3,-210 c 1,-115 5,-295 8,-398 6,-180 5,-189 -12,-185 -17,3 -20,18 -25,148 -4,80 -10,290 -14,467 l -7,321 27,18 c 22,15 37,16 103,8 l 77,-9 3,-32 c 2,-17 9,-37 17,-43 11,-9 14,4 20,73 5,55 3,92 -3,103 -10,17 -12,15 -18,-13 l -6,-33 h -82 c -57,0 -93,-6 -122,-19 -41,-18 -41,-19 -47,-82 -3,-35 -3,-102 0,-148 l 6,-83 -34,8 c -74,19 -139,9 -254,-40 -152,-65 -256,-123 -426,-237 -275,-185 -448,-386 -547,-634 -41,-102 -45,-119 -52,-240 -5,-71 -9,-130 -9,-131 -1,-1 -45,-4 -99,-7 -54,-4 -123,-12 -153,-17 -30,-6 -75,-13 -100,-16 -25,-2 -77,-14 -115,-27 l -69,-22 -3,-112 -3,-112 40,-21 c 22,-11 58,-20 81,-20 46,0 49,-9 24,-68 -32,-73 -35,-105 -13,-128 l 21,-22 -22,-7 c -13,-4 -30,0 -45,9 -13,9 -45,16 -70,16 h -45 l -1,108 c -1,84 -3,98 -10,67 -4,-22 -8,-71 -8,-108 l -1,-69 -172,3 c -140,2 -173,0 -173,-11 0,-11 33,-13 173,-11 l 173,3 -3,-129 c -3,-124 -4,-128 -25,-131 -13,-2 -23,-7 -23,-12 0,-4 35,-6 79,-3 l 78,6 5,-39 c 3,-22 6,-171 7,-332 0,-162 3,-298 7,-303 3,-5 43,-9 89,-9 83,0 84,0 106,-32 34,-48 49,-57 93,-58 27,0 47,7 63,22 21,20 32,21 125,19 57,-1 104,-4 106,-6 8,-8 10,-152 11,-909 l 1,-800 70,-68 c 40,-39 72,-79 76,-95 3,-16 7,-34 10,-40 5,-19 -3,-17 -80,24 -39,20 -116,53 -171,72 l -100,37 -3,452 c -2,444 -3,452 -22,452 -20,0 -20,-7 -20,-449 0,-347 3,-451 12,-458 7,-5 56,-24 108,-42 219,-75 382,-184 640,-431 36,-34 84,-75 108,-92 38,-29 42,-35 42,-75 0,-38 4,-45 26,-53 14,-6 29,-8 34,-5 5,3 20,1 34,-5 23,-8 26,-15 26,-55 0,-33 4,-45 15,-45 12,0 15,16 15,80 v 80 l -24,-15 c -13,-9 -44,-17 -68,-18 l -43,-2 -3,42 -3,42 70,7 c 60,5 71,10 71,25 0,16 -10,19 -87,21 -70,2 -88,6 -88,18 0,10 13,17 40,20 l 40,5 5,89 c 3,48 2,93 -2,100 -4,6 -8,36 -8,66 0,31 -5,61 -12,68 -7,7 -36,12 -66,12 h -55 l 6,-52 6,-53 -22,55 c -12,31 -47,91 -78,135 -87,123 -250,376 -268,415 -14,31 -17,126 -21,800 -3,421 -9,773 -14,783 -5,10 -4,17 2,17 5,0 14,-8 18,-17 5,-10 11,-364 14,-788 l 5,-770 27,-45 c 14,-25 55,-86 90,-135 35,-50 97,-141 138,-202 l 75,-113 h 66 65 l -51,52 c -50,53 -169,216 -219,300 -25,44 -26,49 -24,199 l 2,154 3,-146 4,-146 75,-89 c 42,-49 82,-94 89,-99 20,-16 125,-146 151,-187 15,-24 26,-60 30,-103 5,-49 12,-69 27,-80 20,-14 16,-35 -8,-35 -9,0 -16,-20 -20,-63 -11,-100 -7,-111 41,-117 23,-4 53,-14 68,-23 31,-21 32,-41 11,-212 -22,-175 -23,-169 32,-202 25,-15 134,-86 241,-158 107,-71 215,-143 240,-160 l 45,-30 189,-4 188,-3 47,28 c 46,26 487,319 527,349 19,15 20,21 7,183 -7,92 -16,171 -22,177 -19,19 -9,35 25,35 39,0 98,19 108,34 4,6 8,37 8,69 0,31 4,57 9,57 13,0 21,-27 21,-75 0,-51 15,-70 65,-79 53,-10 38,-30 -25,-34 -49,-3 -52,-2 -39,14 13,15 12,16 -11,9 -58,-18 -100,-46 -100,-66 0,-17 2,-18 13,-7 9,9 33,12 75,10 l 62,-4 v -44 c 0,-50 -10,-54 -84,-33 -50,14 -57,4 -54,-81 2,-52 6,-65 20,-68 14,-3 17,6 20,55 l 3,58 55,5 55,5 3,52 c 2,33 8,53 15,53 6,0 59,47 117,104 194,191 347,302 528,386 72,33 155,73 184,89 l 53,30 v 438 c 0,408 -1,438 -17,441 -17,3 -18,-25 -20,-440 l -3,-443 -65,-32 c -79,-39 -80,-39 -80,-10 0,46 -12,66 -41,72 l -29,7 v 851 c 0,469 4,857 8,863 4,6 56,14 117,18 107,7 111,7 161,-20 62,-34 92,-28 147,27 39,39 40,39 117,39 58,0 81,4 91,16 9,12 13,80 16,276 2,143 5,264 8,269 4,5 5,70 4,144 l -2,135 -41,-7 c -53,-8 -59,-13 -14,-13 34,0 35,-1 42,-46 12,-90 7,-201 -9,-214 -11,-9 -13,-16 -5,-24 5,-5 10,-47 10,-92 0,-64 -3,-83 -15,-88 -17,-6 -21,-46 -5,-46 12,0 14,-269 2,-286 -4,-7 -46,-13 -104,-15 -95,-4 -97,-3 -103,19 -3,13 -18,34 -33,48 -26,22 -33,23 -184,24 h -158 v -50 c 0,-48 -1,-50 -27,-50 h -28 l 3,70 c 4,69 4,70 32,70 31,0 60,23 60,47 0,12 -3,13 -14,4 -21,-18 -108,-41 -131,-35 -46,11 -75,-68 -44,-118 13,-20 14,-134 13,-770 -2,-410 1,-777 5,-815 5,-45 8,14 7,177 -2,588 5,1346 13,1359 8,12 12,11 28,-4 17,-18 18,-59 20,-899 1,-603 -1,-883 -9,-887 -5,-4 7,-6 28,-5 39,1 39,1 42,-42 3,-40 1,-43 -30,-54 -78,-27 -245,-125 -300,-176 -47,-43 -42,-17 5,30 51,51 57,74 57,219 0,90 2,97 30,135 l 29,41 1,914 c 0,503 -3,944 -6,980 -7,75 1,87 43,66 15,-8 43,-18 60,-22 30,-6 38,-2 90,47 32,29 70,64 86,77 l 27,24 v -51 c 0,-45 -3,-52 -20,-52 -22,0 -41,-29 -39,-62 1,-19 3,-17 8,7 5,27 10,30 49,33 l 42,3 v 234 234 l -40,32 c -25,20 -44,46 -50,68 -5,19 -8,35 -7,36 11,7 175,25 225,25 h 62 v -47 c 0,-61 18,-97 50,-101 14,-2 31,-9 38,-14 9,-8 12,-5 12,10 0,18 7,21 53,25 l 52,3 -53,2 c -38,1 -52,6 -50,15 3,8 31,13 81,15 l 77,3 v 31 c 0,18 11,45 25,64 23,31 25,40 25,152 0,65 -3,122 -7,126 -5,4 -8,51 -8,104 v 96 l -41,23 c -66,37 -331,83 -473,83 h -49 l -7,108 c -4,67 -16,136 -31,185 -13,43 -24,95 -24,115 0,70 -140,274 -285,415 -96,94 -185,160 -356,265 -179,110 -331,188 -385,197 -37,6 -141,-7 -180,-22 -12,-4 -14,16 -14,127 0,72 -5,140 -10,151 -16,29 -76,50 -162,56 -77,6 -78,6 -78,34 0,45 -17,43 -23,-3 z m 143,-732 c 0,-195 -3,-361 -6,-370 -19,-49 -24,11 -24,277 0,305 7,447 21,447 5,0 9,-159 9,-354 z m -604,-27 c 6,-340 7,-344 31,-389 13,-25 18,-38 10,-30 -8,8 -28,40 -44,70 l -28,55 -3,275 c -3,282 2,390 19,373 5,-5 12,-161 15,-354 z m 876,245 c 89,-28 204,-80 281,-127 86,-53 43,-39 -109,34 -82,40 -185,83 -229,95 -46,13 -68,23 -53,23 15,1 64,-11 110,-25 z m -1042,6 c -14,-4 -37,-8 -53,-9 -27,-1 -162,-65 -284,-136 -35,-20 -63,-33 -63,-28 1,13 117,85 204,128 88,43 123,53 181,53 34,0 36,-1 15,-8 z m -448,-185 c 1,-5 -42,-39 -95,-75 -54,-36 -137,-102 -186,-148 -84,-77 -94,-83 -157,-96 -46,-10 -74,-11 -86,-5 -33,18 -18,29 40,29 59,0 99,17 145,61 42,41 213,176 267,212 53,36 71,41 72,22 z m 1056,-19 c 7,-8 6,-305 -1,-313 -5,-4 -77,-8 -160,-8 h -152 l -3,165 -2,165 157,-3 c 87,-2 159,-5 161,-6 z m 883,-37 c 76,-49 203,-152 238,-192 27,-32 68,-47 124,-47 41,0 56,-4 61,-16 5,-14 -2,-15 -66,-9 -40,4 -84,12 -98,17 -14,5 -63,47 -110,92 -47,46 -118,105 -157,131 -66,43 -87,65 -65,65 5,0 38,-19 73,-41 z m -1461,-5 c 0,-34 -2,-36 -77,-70 -242,-110 -441,-221 -451,-252 -2,-7 29,9 70,37 74,50 382,204 432,217 23,5 26,3 26,-19 0,-36 -13,-46 -168,-133 -75,-42 -180,-105 -232,-139 -140,-90 -151,-97 -156,-93 -2,2 1,21 7,42 6,20 8,43 6,49 -2,7 -7,-5 -11,-25 -4,-21 -12,-38 -19,-38 -7,0 -34,17 -61,37 l -50,36 35,29 c 40,35 212,152 283,192 108,63 322,166 343,166 20,0 23,-5 23,-36 z m 988,-3 c 108,-43 392,-218 392,-241 0,-4 6,-8 13,-7 33,1 47,-4 47,-17 0,-8 8,-17 18,-20 10,-3 37,-23 60,-43 29,-27 39,-42 33,-51 -6,-11 -17,-5 -47,25 -22,21 -27,25 -11,8 15,-17 27,-36 27,-43 0,-20 -93,-62 -113,-51 -19,11 -22,40 -6,56 37,37 -159,175 -414,293 -115,53 -117,54 -117,87 0,28 3,33 24,33 13,0 56,-13 94,-29 z m -1497,-15 c -12,-13 -45,-35 -74,-50 -51,-27 -45,-21 43,40 55,39 60,40 31,10 z m 1544,-120 c 118,-56 268,-145 320,-189 34,-29 37,-36 30,-65 -3,-18 -12,-32 -19,-32 -7,0 -39,16 -72,37 -32,20 -142,85 -244,144 -161,94 -185,111 -188,135 -3,26 -2,27 36,22 22,-3 84,-26 137,-52 z m -1735,-92 c 0,-27 -38,-57 -67,-52 -11,2 -17,-2 -15,-11 6,-28 -9,-51 -34,-51 -28,0 -42,24 -25,44 6,7 9,21 5,30 -4,12 0,16 16,16 11,0 18,-4 15,-10 -3,-5 -1,-10 4,-10 6,0 11,8 11,18 0,20 24,46 50,54 25,8 40,-3 40,-28 z m 2355,-4 c 25,-26 27,-32 15,-40 -24,-16 -48,-11 -70,12 -25,27 -25,34 -2,47 24,15 25,14 57,-19 z m 20,-74 c 0,-13 -3,-22 -7,-19 -5,2 -8,13 -8,24 0,10 3,19 8,19 4,0 7,-11 7,-24 z m 220,4 c 3,-5 1,-10 -5,-10 -6,0 11,-33 38,-72 l 50,-73 6,-135 c 4,-74 11,-164 15,-199 7,-59 11,-67 50,-100 52,-45 58,-69 67,-276 5,-102 3,-172 -6,-220 -7,-38 -13,-80 -14,-92 -1,-16 -9,-23 -35,-28 -35,-7 -54,1 -33,14 10,6 13,68 10,287 l -3,279 -27,39 c -16,21 -28,53 -29,70 0,17 -6,103 -13,191 -12,160 -12,160 -54,236 -23,42 -42,81 -42,87 0,15 17,16 25,2 z m -1297,-65 c 1,-6 -59,-11 -163,-13 -98,-1 -165,1 -165,7 0,15 12,16 173,16 93,0 153,-4 155,-10 z m -1614,-7 c -5,-7 -20,-30 -35,-50 -23,-33 -27,-51 -33,-140 -15,-226 -37,-338 -67,-338 -9,0 -9,3 0,14 12,14 34,177 46,338 6,83 9,90 47,138 37,46 59,66 42,38 z m 274,-35 c -7,-9 -42,-46 -78,-83 -36,-36 -84,-89 -107,-117 l -42,-51 -7,-186 c -6,-146 -10,-186 -21,-186 -10,0 -12,25 -8,133 9,227 12,244 44,290 40,58 114,133 149,151 16,8 37,26 46,40 9,15 21,26 27,26 5,0 4,-7 -3,-17 z m 2544,-146 53,-61 3,-198 c 2,-114 -1,-198 -6,-198 -5,0 -12,84 -15,186 l -6,185 -38,47 c -21,26 -66,77 -100,113 -35,37 -63,72 -63,78 0,17 108,-78 172,-152 z m -2678,118 c -4,-8 -8,-15 -10,-15 -2,0 -4,7 -4,15 0,8 4,15 10,15 5,0 7,-7 4,-15 z m -288,-239 c -4,-111 -12,-202 -17,-204 -5,-2 -9,-126 -9,-298 0,-162 -4,-294 -8,-294 -9,0 -40,60 -52,101 -9,32 9,472 20,479 27,17 39,88 46,265 5,133 10,182 17,170 6,-12 7,-91 3,-219 z m 1885,120 -2,-106 h 365 c 200,0 371,-3 380,-6 12,-5 16,0 16,20 0,32 10,33 38,4 35,-39 42,-74 43,-236 2,-150 2,-154 11,-77 5,44 7,124 4,178 -2,56 0,95 5,91 5,-3 9,-14 9,-25 0,-23 73,-105 101,-114 33,-11 50,-60 56,-166 5,-79 3,-103 -7,-109 -21,-13 -30,-2 -30,36 0,19 -6,49 -14,67 -18,39 -72,104 -80,96 -4,-3 11,-28 33,-54 50,-61 56,-95 35,-201 -14,-72 -21,-89 -46,-107 -27,-20 -28,-24 -28,-110 0,-79 2,-89 19,-94 18,-5 20,-16 20,-200 1,-158 4,-205 18,-244 14,-39 15,-54 6,-81 -7,-18 -17,-64 -23,-103 -23,-140 -28,-152 -101,-224 -66,-65 -68,-69 -63,-107 5,-33 4,-36 -7,-20 -7,11 -27,35 -46,53 -18,19 -33,40 -33,48 0,7 22,43 49,78 75,98 122,175 111,182 -6,3 -10,15 -10,26 0,33 -22,16 -35,-27 -15,-49 -58,-136 -96,-191 -19,-27 -29,-54 -29,-77 0,-41 -7,-44 -52,-16 -45,27 -59,25 -98,-15 -19,-19 -38,-35 -42,-35 -23,0 11,167 38,187 24,18 34,16 35,-4 1,-15 2,-14 6,2 3,11 43,59 89,106 50,51 92,105 105,133 29,67 49,169 49,258 0,65 -5,88 -36,163 -48,114 -86,163 -155,198 -52,27 -62,28 -179,28 -196,-1 -297,-27 -423,-107 -37,-24 -72,-44 -78,-44 -5,0 -31,20 -57,44 -70,65 -132,106 -159,106 -16,0 -55,-29 -118,-85 l -95,-86 -71,50 c -111,78 -293,130 -460,131 -87,0 -143,-16 -210,-62 -51,-34 -69,-59 -113,-158 -26,-58 -30,-78 -33,-180 -2,-66 -7,-116 -13,-118 -62,-21 -52,-110 23,-205 21,-28 33,-58 42,-111 7,-41 25,-94 39,-118 14,-25 26,-52 26,-61 0,-21 -60,-40 -105,-31 -44,8 -41,30 4,26 32,-3 32,-3 17,20 -9,13 -40,45 -69,70 -48,41 -59,60 -104,165 -63,146 -69,173 -49,210 l 15,28 1,-53 c 0,-46 7,-65 52,-138 28,-46 53,-84 54,-84 9,0 -19,55 -51,102 l -35,53 v 246 c 0,210 2,248 15,253 34,13 45,-4 45,-68 0,-33 5,-68 11,-76 8,-12 9,-10 5,10 -3,14 -6,100 -6,192 v 167 l -36,7 c -19,4 -37,12 -39,18 -2,6 -6,51 -8,100 l -5,89 45,46 c 49,51 69,81 54,81 -14,0 -109,-117 -138,-171 l -25,-44 7,99 c 8,129 23,157 144,276 l 96,95 3,-110 c 1,-60 7,-114 13,-120 6,-6 9,30 7,105 -2,98 0,119 16,143 22,33 36,35 36,5 v -23 l 365,3 365,2 v -100 -100 h 199 200 l 30,32 c 34,36 46,64 56,121 4,27 11,37 25,37 48,0 50,6 50,123 0,61 3,108 6,104 3,-3 6,-53 5,-111 z m 980,27 75,-78 23,-175 c 24,-182 25,-261 4,-268 -10,-3 -13,14 -13,65 0,75 -26,340 -36,370 -4,10 -39,51 -78,91 -39,39 -66,72 -60,72 6,0 44,-35 85,-77 z m -1196,57 c 3,-6 3,-30 -1,-55 l -6,-45 h -53 c -58,0 -65,8 -65,78 v 32 h 59 c 33,0 63,-5 66,-10 z m -1285,-40 c -44,-39 -80,-65 -80,-57 0,7 111,97 119,97 3,0 -14,-18 -39,-40 z m 950,3 c 0,-26 -1,-26 -17,-10 -16,16 -16,19 -3,27 20,13 20,13 20,-17 z M 3799,6818 c -5,-65 -15,-124 -28,-160 -16,-44 -21,-81 -21,-160 -1,-80 -3,-99 -12,-84 -17,30 -4,211 21,278 14,38 21,81 21,127 0,38 3,76 6,85 14,38 19,9 13,-86 z m 1063,77 c 3,-14 1,-28 -3,-31 -5,-3 -9,9 -9,25 0,38 6,40 12,6 z m 1468,-138 c 0,-18 -2,-19 -10,-7 -13,20 -13,43 0,35 6,-3 10,-16 10,-28 z M 3342,6560 c -36,-15 -159,-25 -147,-12 10,11 57,18 130,20 33,1 36,-1 17,-8 z m 3653,3 47,-6 -6,-56 c -4,-30 -8,-56 -10,-58 -1,-2 -33,10 -69,27 -64,29 -67,32 -67,65 0,32 3,35 29,35 15,0 50,-3 76,-7 z m 85,-17 c 0,-15 -18,-31 -26,-23 -7,7 7,37 17,37 5,0 9,-6 9,-14 z m -4078,-91 -4,-76 -66,3 -67,3 v 55 55 l 60,16 c 33,9 65,17 70,18 6,1 9,-28 7,-74 z m 4338,41 c 21,-10 25,-18 24,-55 0,-23 -7,-46 -13,-51 -17,-10 -122,-22 -130,-14 -3,3 -8,37 -11,76 l -5,70 55,-7 c 30,-4 66,-12 80,-19 z m -267,-187 c 7,-187 5,-215 -14,-204 -11,8 -12,395 -1,395 5,0 12,-86 15,-191 z m -3883,-19 c 0,-127 -4,-200 -10,-200 -6,0 -10,71 -10,193 0,170 3,207 17,207 2,0 3,-90 3,-200 z m 122,30 c 3,-137 2,-150 -14,-150 -16,0 -18,13 -18,134 0,74 3,141 6,150 16,42 23,4 26,-134 z m 3598,54 c 0,-85 -12,-108 -30,-58 -11,28 -13,114 -4,138 3,8 12,12 20,9 10,-4 14,-26 14,-89 z m -3670,-90 c 0,-121 -2,-144 -15,-144 -13,0 -15,23 -15,143 0,79 3,147 6,150 18,18 24,-17 24,-149 z m 3724,150 c 13,-5 16,-22 16,-81 0,-66 -2,-74 -17,-71 -15,3 -18,16 -21,81 -2,42 -1,77 2,77 2,0 11,-3 20,-6 z m 56,-159 c 0,-90 -4,-145 -10,-145 -6,0 -10,55 -10,145 0,90 4,145 10,145 6,0 10,-55 10,-145 z m 340,56 c 0,-20 -8,-35 -22,-45 l -22,-16 h 27 27 v -92 c 0,-79 -3,-97 -22,-125 -36,-53 -130,-71 -136,-27 -3,19 4,23 44,29 67,10 74,14 74,44 0,15 6,33 13,40 10,10 9,15 -5,25 -12,9 -18,27 -18,50 0,33 -4,39 -37,53 -21,9 -41,16 -45,15 -5,-1 -8,14 -8,33 v 34 l 58,4 c 31,2 60,4 65,5 4,1 7,-11 7,-27 z m -4392,2 c 2,-9 -7,-13 -26,-13 -39,0 -63,10 -56,22 8,13 77,5 82,-9 z m 3940,-126 c 2,-27 -1,-47 -7,-47 -16,0 -31,35 -31,70 0,25 4,31 18,28 13,-2 18,-15 20,-51 z m 72,-6 c 0,-52 -5,-62 -26,-54 -18,7 -19,99 -1,106 21,8 27,-3 27,-52 z m -3941,-15 c 1,-22 -3,-27 -15,-22 -9,3 -19,6 -24,6 -5,0 -1,19 8,41 13,34 17,38 23,23 4,-11 8,-32 8,-48 z m 4246,34 c 0,-8 -10,-16 -22,-18 -22,-3 -32,16 -16,32 12,11 38,2 38,-14 z m -5,-47 c 3,-3 -1,-8 -7,-10 -22,-8 -14,-23 12,-23 14,0 25,-4 25,-10 0,-5 -20,-10 -45,-10 h -45 v 36 c 0,34 1,36 27,29 16,-4 30,-9 33,-12 z m -4250,-43 c 0,-5 -6,-10 -12,-10 -7,0 -23,-3 -35,-6 -17,-5 -23,-2 -23,10 0,12 9,16 35,16 19,0 35,-4 35,-10 z m 2172,-82 83,-82 -34,-4 c -20,-2 -54,5 -84,18 -63,27 -90,22 -168,-31 -100,-68 -92,-40 28,93 43,47 81,87 85,87 3,1 44,-36 90,-81 z m -2302,-56 v -47 l 97,3 c 79,3 96,1 86,-9 -15,-15 -17,-69 -3,-69 6,0 10,6 10,14 0,7 9,16 20,19 17,4 20,14 20,71 v 67 l 78,-7 c 157,-14 165,-16 174,-49 7,-26 4,-33 -19,-52 -69,-55 -64,-29 -61,-296 l 3,-242 25,-4 c 14,-1 28,-8 32,-14 4,-7 5,-61 2,-122 -8,-161 -8,-160 -31,-163 -16,-2 -22,4 -26,28 -4,17 -18,42 -31,55 -21,21 -34,25 -89,25 -72,0 -94,-12 -99,-55 l -3,-30 h -90 -90 l -3,135 c -2,93 1,142 10,158 9,17 9,25 1,30 -8,5 -13,54 -15,140 -3,112 -1,132 12,132 10,0 11,3 3,8 -7,4 -12,43 -14,97 -3,96 -7,118 -19,110 -4,-3 -5,-34 -2,-70 l 5,-66 -49,3 -49,3 -3,127 -3,127 43,3 c 66,5 78,-5 78,-60 z m 1694,17 c 55,-20 157,-101 144,-114 -3,-3 -24,5 -45,19 -147,97 -336,86 -424,-25 -58,-73 -99,-109 -125,-109 -13,0 -24,1 -24,3 0,6 95,112 134,149 21,21 62,47 90,57 28,11 46,20 39,20 -41,2 -124,-46 -188,-108 -38,-38 -80,-74 -92,-80 -21,-11 -23,-10 -23,18 0,61 36,118 93,148 43,22 161,40 269,42 76,1 109,-3 152,-20 z m 1361,-3 c 49,-21 82,-51 105,-96 19,-39 35,-100 25,-100 -18,0 -97,49 -145,90 -75,65 -114,82 -191,88 -79,5 -153,-10 -231,-49 -71,-36 -78,-36 -47,-3 35,37 86,66 143,81 73,18 288,11 341,-11 z m -2465,-6 c -20,-13 -93,-13 -85,0 3,6 27,10 53,10 34,0 43,-3 32,-10 z m 1709,-85 c 45,-22 51,-29 51,-58 0,-17 9,-66 20,-107 15,-56 20,-111 21,-220 1,-115 3,-136 10,-100 5,25 10,89 12,142 2,54 6,100 9,104 4,3 32,-21 62,-54 71,-76 171,-141 242,-158 75,-17 213,-2 289,32 46,20 62,34 95,86 22,33 49,67 60,75 11,8 34,38 50,66 l 30,52 v -76 c 0,-147 -46,-229 -198,-348 -54,-43 -83,-73 -86,-90 -7,-32 -36,-213 -36,-223 0,-4 17,-8 38,-10 l 37,-3 -2,-242 -1,-242 -26,-34 c -23,-30 -27,-48 -33,-133 l -6,-99 -155,-150 -154,-150 12,-68 c 14,-79 11,-85 -74,-139 -43,-28 -62,-34 -128,-38 l -78,-5 v 33 c 0,40 -10,41 -38,2 -22,-29 -25,-30 -103,-30 -76,0 -80,1 -89,26 -6,14 -10,39 -10,55 0,18 -4,28 -10,24 -5,-3 -10,-28 -10,-56 v -49 h -44 c -57,0 -174,24 -218,46 l -35,16 9,50 c 5,27 7,57 5,66 -2,9 -7,-9 -11,-41 -5,-31 -12,-60 -17,-63 -5,-2 -22,2 -39,11 l -31,16 3,82 3,82 34,-3 33,-4 -27,37 c -27,35 -28,37 -22,143 3,74 2,95 -4,67 -5,-22 -9,-68 -9,-102 -1,-55 -3,-63 -19,-63 -21,0 -114,69 -130,97 -6,10 -11,12 -11,5 0,-7 25,-40 56,-73 63,-68 84,-111 84,-166 0,-45 -9,-83 -20,-83 -12,0 -139,98 -217,167 -90,80 -102,111 -84,221 10,59 10,76 0,90 -15,20 -102,103 -104,99 -20,-41 -45,-107 -47,-124 -2,-17 -7,-20 -18,-13 -13,8 -15,54 -18,297 -2,172 1,294 7,302 8,12 13,12 35,-3 25,-16 26,-19 26,-132 0,-127 9,-155 72,-227 l 33,-39 1,89 c 0,48 9,141 19,205 16,100 17,121 5,143 -10,19 -12,67 -6,225 4,132 3,200 -4,200 -5,0 -10,-14 -10,-31 0,-53 -20,-73 -131,-127 -7,-3 -23,51 -39,133 -15,72 -46,136 -95,194 l -36,44 22,15 c 30,21 49,73 49,137 v 55 h 38 c 20,0 44,-4 52,-10 11,-7 9,-11 -13,-19 -16,-6 -33,-11 -38,-11 -17,0 -9,-35 24,-94 24,-45 50,-73 101,-112 79,-60 85,-62 227,-70 142,-9 163,-4 230,59 31,28 81,73 111,99 l 55,47 6,-52 c 5,-50 64,-217 76,-217 3,0 4,49 3,109 -3,87 1,127 18,197 15,57 21,107 18,144 l -4,56 41,18 c 110,50 109,50 204,1 z m -584,-83 c 14,-13 25,-28 23,-34 -11,-33 -186,-57 -313,-43 l -69,7 25,19 c 54,43 125,72 189,78 81,8 112,2 145,-27 z m 1172,6 c 50,-22 114,-69 107,-80 -11,-17 -314,3 -344,23 -12,8 -9,15 18,39 30,28 38,30 112,30 43,0 92,-5 107,-12 z m 311,-52 c 12,-2 25,-6 28,-9 7,-7 -23,-64 -39,-74 -7,-4 -33,-36 -57,-70 -60,-84 -120,-115 -235,-121 -189,-10 -357,56 -411,160 -15,28 -10,58 10,58 7,0 34,-15 61,-32 80,-54 107,-66 179,-79 112,-21 221,10 306,88 33,29 46,35 75,31 19,-2 35,-3 35,-2 0,1 -16,12 -35,24 -50,31 -45,44 13,36 26,-4 57,-9 70,-10 z m -587,-33 c 8,-9 38,-27 67,-40 68,-30 152,-31 219,-2 59,25 128,31 128,10 0,-18 -79,-66 -132,-80 -100,-28 -221,-3 -284,60 -39,39 -50,69 -25,69 7,0 20,-7 27,-17 z m -875,-9 c -3,-9 -6,-23 -6,-33 0,-37 -152,-78 -244,-66 -58,7 -92,23 -125,58 -34,37 -19,51 29,27 94,-48 213,-46 296,6 46,28 58,30 50,8 z m -412,-58 c 34,-18 79,-39 100,-46 56,-18 170,-14 251,9 l 70,20 18,-22 c 30,-38 18,-66 -43,-101 -48,-27 -64,-31 -130,-31 -124,0 -203,19 -281,65 -69,41 -128,107 -114,129 12,21 69,11 129,-23 z m -508,-157 c -5,-24 1,-44 25,-85 17,-30 29,-59 27,-64 -3,-11 -120,83 -127,101 -3,9 65,78 78,79 2,0 1,-14 -3,-31 z m 2873,7 c 9,-11 6,-26 -13,-70 -14,-31 -27,-56 -30,-56 -4,0 -6,32 -6,70 0,62 2,70 19,70 10,0 24,-6 30,-14 z M 3424,5368 c 9,-12 17,-41 17,-63 1,-22 4,-31 6,-20 3,11 12,29 22,40 15,18 15,19 -1,6 -16,-12 -18,-11 -18,13 0,23 2,25 18,16 9,-6 58,-35 107,-64 l 90,-52 5,-904 c 5,-918 6,-950 40,-950 12,0 13,-65 4,-213 l -7,-106 -23,16 c -13,8 -24,23 -24,32 0,51 -25,98 -84,156 -57,56 -64,66 -70,115 -4,29 -4,111 0,182 7,124 8,129 28,126 20,-3 21,-10 26,-127 4,-100 7,-121 17,-109 10,11 13,212 13,874 0,472 0,867 0,877 0,15 -8,18 -52,15 -58,-3 -59,-4 -47,-98 3,-30 1,-35 -18,-38 -21,-3 -22,1 -25,75 l -3,78 -32,-3 -33,-4 v 76 c 0,82 13,98 44,54 z m -2,-213 c -4,-56 -13,-71 -36,-62 -12,5 -16,20 -16,55 0,55 5,64 35,60 18,-3 20,-9 17,-53 z m 806,-6 c -18,-12 -58,-11 -58,1 0,5 15,16 33,23 27,12 32,12 35,-1 2,-8 -2,-18 -10,-23 z m 2330,-755 -6,-763 -44,-68 c -25,-37 -71,-111 -103,-163 -55,-89 -178,-273 -197,-294 -4,-6 -8,-2 -8,10 0,11 60,110 134,220 73,110 146,224 162,254 l 29,55 5,770 c 3,424 7,772 8,775 2,3 8,-4 14,-14 8,-14 10,-230 6,-782 z m 376,790 c 11,-4 16,-19 16,-45 v -39 h -75 -75 v 45 45 h 59 c 33,0 66,-3 75,-6 z m -3676,-31 c 18,-26 15,-42 -17,-74 -35,-34 -72,-38 -101,-9 -22,22 -27,72 -7,88 32,26 104,23 125,-5 z m 3847,4 c 26,-20 13,-65 -23,-78 -20,-8 -35,-7 -60,5 -18,9 -39,16 -47,16 -18,0 -20,36 -3,46 12,8 68,21 99,23 8,0 23,-5 34,-12 z M 3560,4430 v -680 h -24 c -19,0 -25,6 -29,33 -2,17 -5,316 -6,664 l -2,631 23,16 c 12,9 26,16 30,16 5,0 8,-306 8,-680 z m 427,618 c -3,-8 -6,-5 -6,6 -1,11 2,17 5,13 3,-3 4,-12 1,-19 z m 144,9 c 34,-26 39,-51 19,-85 -24,-39 -52,-41 -86,-6 -20,19 -24,31 -19,52 4,15 11,33 17,39 13,16 48,16 69,0 z m 1996,-11 c 23,-20 26,-28 17,-43 -15,-24 -65,-29 -80,-8 -9,13 -9,22 3,46 18,35 24,36 60,5 z m 141,-116 c -6,-32 -8,-107 -4,-178 5,-98 4,-123 -6,-119 -18,6 -17,267 1,320 18,52 21,43 9,-23 z m -2301,-17 c -2,-16 -4,-5 -4,22 0,28 2,40 4,28 2,-13 2,-35 0,-50 z m 2151,53 c 23,0 42,-3 42,-6 0,-16 -27,-30 -57,-30 -18,0 -33,-5 -33,-10 0,-6 11,-8 26,-4 l 27,7 -7,-299 -7,-299 -59,-59 c -32,-32 -63,-55 -69,-52 -6,4 -11,33 -11,65 0,55 2,60 35,82 l 35,24 -2,125 -1,125 -7,-117 -8,-118 -46,-45 c -55,-53 -62,-69 -71,-160 -9,-87 -23,-121 -66,-163 -34,-34 -230,-179 -254,-188 -16,-6 -23,14 -31,79 l -6,52 124,120 c 114,111 163,155 172,155 2,0 7,-15 10,-32 11,-54 25,-13 35,106 9,104 13,116 56,164 11,13 36,73 56,134 20,61 38,105 41,97 3,-8 9,17 13,54 8,71 3,159 -10,191 -7,17 -6,18 11,11 10,-5 38,-9 62,-9 z M 3955,4605 c 8,-29 14,-68 14,-87 l -1,-33 -9,35 c -4,19 -14,58 -22,85 -9,29 -17,118 -20,210 l -6,160 14,-159 c 8,-87 21,-182 30,-211 z m 2352,83 c -2,-29 -3,-8 -3,47 0,55 1,79 3,53 2,-26 2,-71 0,-100 z M 4218,4302 c 3,-83 -3,-96 -30,-64 -38,43 -41,61 -16,108 12,24 27,43 33,41 5,-2 11,-40 13,-85 z m -29,-205 c 5,-17 17,-81 26,-141 8,-60 20,-115 25,-121 9,-11 29,-170 30,-236 0,-15 7,-30 16,-33 13,-5 15,-1 9,21 -12,49 -24,246 -16,260 4,9 13,-46 20,-129 17,-197 28,-226 153,-383 58,-71 138,-173 179,-225 41,-52 107,-132 147,-178 39,-46 72,-90 72,-98 0,-28 -30,-12 -103,56 -63,59 -80,70 -110,70 -19,0 -55,3 -80,6 -45,7 -49,10 -189,178 -79,94 -155,183 -169,197 -14,15 -26,33 -26,41 -1,7 -7,27 -14,45 -12,29 -11,33 11,51 l 25,20 -3,219 c -3,194 -12,332 -28,401 -7,35 13,18 25,-21 z m 1829,-313 1,-266 26,-23 c 27,-26 32,-54 13,-74 -10,-11 -10,-14 0,-18 31,-12 6,-49 -191,-285 l -122,-147 h -72 c -39,-1 -82,-5 -96,-10 -13,-5 -52,-39 -87,-75 -35,-36 -69,-66 -76,-66 -30,0 -21,22 34,87 59,69 203,251 314,398 34,44 77,97 96,117 43,46 50,84 51,296 1,78 5,142 10,142 16,0 21,-64 15,-182 -5,-77 -4,-118 3,-118 6,0 13,47 17,108 7,101 12,133 34,227 6,22 13,66 17,98 3,31 7,57 9,57 1,0 3,-120 4,-266 z m 309,-81 c -1,-49 -3,-9 -3,87 0,96 2,136 3,88 2,-49 2,-127 0,-175 z m -43,-271 c -49,-75 -178,-243 -204,-267 -32,-29 -24,-35 41,-35 84,0 75,-23 -12,-30 l -64,-5 -7,-60 c -10,-83 -17,-105 -30,-105 -20,0 -3,201 21,247 22,42 100,142 190,243 31,36 66,78 77,95 l 19,29 3,-28 c 3,-19 -8,-45 -34,-84 z m -134,-42 c 0,-5 -2,-10 -4,-10 -3,0 -8,5 -11,10 -3,6 -1,10 4,10 6,0 11,-4 11,-10 z m -2368,-95 c 4,-22 7,-80 7,-129 1,-90 1,-90 41,-137 69,-82 43,-97 -39,-23 l -51,46 v 145 c 0,132 2,144 17,141 12,-2 20,-17 25,-43 z m 2668,-95 c -6,-12 -14,-20 -17,-17 -2,3 1,14 8,26 17,26 24,19 9,-9 z m -190,-139 c 0,-5 -7,-14 -15,-21 -8,-6 -13,-21 -12,-32 1,-12 -4,-23 -10,-25 -18,-6 -16,22 2,57 15,28 35,40 35,21 z m -2325,-31 c -3,-5 -11,-10 -16,-10 -6,0 -7,5 -4,10 3,6 11,10 16,10 6,0 7,-4 4,-10 z m 1210,-49 c 0,-8 -8,-19 -17,-25 -22,-13 -44,5 -34,29 7,20 51,16 51,-4 z m 1032,-28 c -3,-10 -5,-4 -5,12 0,17 2,24 5,18 2,-7 2,-21 0,-30 z m -2071,-51 c -10,-10 -29,15 -21,28 6,9 10,8 17,-4 6,-10 7,-20 4,-24 z m 2134,8 c 0,-5 -4,-10 -10,-10 -5,0 -10,5 -10,10 0,6 5,10 10,10 6,0 10,-4 10,-10 z m -1176,-53 c 9,-15 7,-21 -9,-33 -28,-21 -59,-14 -63,15 -6,41 49,55 72,18 z m 181,-7 c 0,-20 -6,-26 -26,-28 -30,-4 -46,22 -28,45 20,23 54,12 54,-17 z m -545,-5 c 0,-8 -4,-15 -10,-15 -5,0 -10,7 -10,15 0,8 5,15 10,15 6,0 10,-7 10,-15 z m 900,5 c 21,-11 17,-40 -5,-40 -12,0 -25,21 -25,41 0,12 7,11 30,-1 z m -1082,-48 c 4,-27 -28,-31 -49,-6 -10,13 -10,17 2,25 22,14 44,6 47,-19 z m 1232,14 c 0,-17 -14,-29 -23,-20 -8,8 3,34 14,34 5,0 9,-6 9,-14 z m -1345,-74 c -8,-8 -25,10 -25,26 0,13 2,13 14,-4 8,-10 13,-21 11,-22 z m 720,-36 c 121,0 238,4 260,8 36,7 50,3 133,-39 93,-46 105,-58 76,-69 -25,-10 -964,-7 -964,3 0,13 19,27 105,71 72,37 84,41 125,34 25,-4 144,-8 265,-8 z m 510,-148 c 2,-13 9,-81 15,-152 5,-70 13,-132 16,-138 7,-11 -24,-48 -40,-48 -7,0 -11,34 -12,98 0,53 -4,118 -8,145 l -7,47 h -483 -483 l -8,-120 c -3,-65 -4,-124 0,-130 3,-5 17,-10 31,-10 24,0 24,0 24,105 0,87 3,105 15,105 12,0 15,-19 15,-113 0,-76 -4,-119 -13,-131 -12,-16 -15,-16 -59,3 -25,10 -48,24 -52,29 -3,5 0,82 6,171 l 12,161 h 513 513 z m -146,-72 c -2,-2 -164,-7 -361,-11 -245,-4 -358,-3 -363,4 -4,8 107,11 361,11 202,0 365,-2 363,-4 z m 65,-73 c 3,-27 7,-86 8,-133 3,-70 0,-85 -12,-85 -12,0 -16,23 -21,125 -3,69 -4,128 -2,133 11,19 22,3 27,-40 z m -94,-78 c 0,-22 -646,-23 -676,0 -17,13 21,14 329,15 302,0 347,-2 347,-15 z m -191,-76 c 95,-1 119,-3 96,-10 -37,-12 -502,-17 -532,-6 -13,5 -23,13 -23,19 0,8 49,9 167,5 91,-4 223,-7 292,-8 z m -297,-126 3,-88 29,-5 c 46,-8 36,-25 -16,-28 l -48,-3 v 105 c 0,86 3,106 15,106 11,0 15,-19 17,-87 z m 318,-23 c 0,-49 -4,-91 -9,-95 -13,-8 -92,6 -86,15 3,4 18,10 35,13 30,6 30,7 30,71 0,70 7,99 21,90 5,-3 9,-45 9,-94 z m 138,42 c 2,-13 -4,-32 -14,-43 -21,-23 -49,-26 -40,-3 3,9 6,29 6,46 0,25 3,29 23,26 14,-2 23,-11 25,-26 z m -568,-11 c 6,-16 10,-37 8,-46 -2,-13 -8,-10 -25,14 -13,16 -20,37 -17,45 9,24 20,19 34,-13 z"
       id="path953-2"
       transform="matrix(0.0352778,0,0,-0.0352778,-268.603,734.492)"
       clip-path="none" />
    <path
       d="m 4978,7391 3,-119 72,-7 c 40,-4 92,-5 117,-3 l 45,3 3,123 3,122 h -123 -123 z m 187,94 c -5,-2 -23,-6 -38,-9 -46,-11 -21,-29 29,-21 l 44,6 v -86 -86 l -97,3 -98,3 -1,35 c -1,19 -5,51 -9,72 -10,50 1,76 33,81 33,5 151,7 137,2 z"
       id="path955-6"
       transform="matrix(0.0352778,0,0,-0.0352778,-268.603,734.492)"
       clip-path="none" />
    <path
       d="m 5042,7415 c -20,-18 -33,-37 -29,-42 5,-4 13,0 18,10 6,9 16,17 24,17 7,0 15,6 18,13 9,25 32,-14 32,-56 0,-32 4,-42 18,-45 9,-2 17,2 17,9 0,7 -8,21 -17,32 -17,19 -17,20 5,15 17,-5 22,-2 22,12 0,11 -5,22 -10,25 -6,4 -8,10 -5,15 3,4 -9,13 -26,19 -27,9 -33,7 -67,-24 z"
       id="path957-5"
       transform="matrix(0.0352778,0,0,-0.0352778,-268.603,734.492)"
       clip-path="none" />
    <path
       d="m 5032,7343 c 5,-25 25,-27 38,-4 10,19 8,21 -15,21 -19,0 -26,-5 -23,-17 z"
       id="path959-0"
       transform="matrix(0.0352778,0,0,-0.0352778,-268.603,734.492)"
       clip-path="none" />
    <path
       d="m 4164,6640 c -50,-20 -68,-84 -39,-139 26,-52 91,-57 137,-11 26,27 30,36 25,68 -4,24 -17,47 -37,65 -31,28 -50,32 -86,17 z m 22,-85 c -6,-25 -36,-36 -36,-13 0,14 31,50 38,44 2,-3 2,-17 -2,-31 z"
       id="path961-8"
       transform="matrix(0.0352778,0,0,-0.0352778,-268.603,734.492)"
       clip-path="none" />
    <path
       d="m 5998,6609 c -35,-26 -38,-79 -8,-109 31,-31 111,-22 136,15 13,20 13,27 0,58 -24,59 -78,74 -128,36 z"
       id="path963-8"
       transform="matrix(0.0352778,0,0,-0.0352778,-268.603,734.492)"
       clip-path="none" />
    <path
       d="m 3950,6521 c 5,-11 15,-32 20,-47 6,-15 13,-24 16,-21 6,5 -33,87 -42,87 -2,0 0,-9 6,-19 z"
       id="path965-6"
       transform="matrix(0.0352778,0,0,-0.0352778,-268.603,734.492)"
       clip-path="none" />
    <path
       d="m 4042,6515 c 0,-11 3,-29 8,-40 11,-25 11,1 0,35 -6,20 -8,21 -8,5 z"
       id="path967-7"
       transform="matrix(0.0352778,0,0,-0.0352778,-268.603,734.492)"
       clip-path="none" />
    <path
       d="m 6112,6437 c -13,-24 -29,-36 -52,-41 -18,-3 -212,-6 -431,-6 h -398 l -13,28 c -13,27 -15,27 -110,28 -92,0 -97,-1 -107,-24 l -11,-24 -451,4 -451,3 6,-29 c 3,-16 6,-39 6,-52 0,-22 3,-24 28,-18 15,4 36,13 48,21 18,11 176,13 930,11 l 909,-3 48,-28 c 26,-15 47,-24 47,-20 0,4 7,46 15,92 8,47 13,86 11,88 -2,2 -13,-11 -24,-30 z m -918,-15 c 2,-4 1,-14 -3,-21 -6,-9 -30,-12 -82,-9 -61,2 -74,6 -77,21 -3,15 6,17 77,17 44,0 82,-4 85,-8 z"
       id="path969-4"
       transform="matrix(0.0352778,0,0,-0.0352778,-268.603,734.492)"
       clip-path="none" />
    <path
       d="m 6194,6040 c 4,-14 11,-47 17,-75 15,-69 19,-79 25,-73 7,8 -26,151 -38,163 -7,7 -9,2 -4,-15 z"
       id="path971-9"
       transform="matrix(0.0352778,0,0,-0.0352778,-268.603,734.492)"
       clip-path="none" />
    <path
       d="m 6230,5512 5,-47 3,39 c 2,21 0,42 -5,47 -4,4 -6,-13 -3,-39 z"
       id="path973-2"
       transform="matrix(0.0352778,0,0,-0.0352778,-268.603,734.492)"
       clip-path="none" />
    <path
       d="m 2978,5755 c -26,-25 -44,-45 -40,-45 9,1 42,29 71,63 36,40 22,32 -31,-18 z"
       id="path975-2"
       transform="matrix(0.0352778,0,0,-0.0352778,-268.603,734.492)"
       clip-path="none" />
    <path
       d="m 4418,6013 c 7,-3 16,-2 19,1 4,3 -2,6 -13,5 -11,0 -14,-3 -6,-6 z"
       id="path977-52"
       transform="matrix(0.0352778,0,0,-0.0352778,-268.603,734.492)"
       clip-path="none" />
    <path
       d="m 5818,6005 c 35,-8 80,-24 100,-36 l 37,-21 -24,25 c -24,26 -95,48 -149,46 -15,0 2,-7 36,-14 z"
       id="path979-1"
       transform="matrix(0.0352778,0,0,-0.0352778,-268.603,734.492)"
       clip-path="none" />
    <path
       d="m 4342,5273 3,-68 58,-9 c 32,-4 60,-7 62,-5 2,2 7,32 11,67 l 7,62 -36,-15 c -50,-21 -66,-19 -79,10 -19,43 -29,28 -26,-42 z"
       id="path981-9"
       transform="matrix(0.0352778,0,0,-0.0352778,-268.603,734.492)"
       clip-path="none" />
    <path
       d="m 4813,5193 c -56,-36 -83,-87 -83,-156 0,-66 9,-92 56,-163 l 36,-54 h 67 c 80,0 118,-18 160,-77 48,-66 64,-70 108,-28 35,34 38,35 119,35 h 82 l 37,43 c 72,83 90,124 89,204 -1,52 -6,80 -20,101 -19,30 -80,84 -119,105 -19,10 -19,9 -2,-14 9,-13 25,-35 34,-49 9,-14 30,-40 45,-58 22,-26 28,-43 28,-81 0,-59 -23,-88 -46,-56 -37,54 -31,54 -164,5 -105,-39 -160,-36 -266,14 l -71,34 -32,-20 c -36,-23 -37,-25 -14,-52 10,-12 11,-15 3,-8 -8,6 -21,12 -30,12 -31,0 -55,39 -53,86 1,41 47,135 91,187 24,27 -6,22 -55,-10 z m 202,-323 c 3,-6 -1,-7 -9,-4 -18,7 -21,14 -7,14 6,0 13,-4 16,-10 z m 118,-47 c -13,-2 -35,-2 -50,0 -16,2 -5,4 22,4 28,0 40,-2 28,-4 z"
       id="path983-0"
       transform="matrix(0.0352778,0,0,-0.0352778,-268.603,734.492)"
       clip-path="none" />
    <path
       d="m 4506,5059 c -9,-48 -7,-117 4,-124 6,-4 10,23 10,74 0,45 -2,81 -4,81 -2,0 -6,-14 -10,-31 z"
       id="path985-6"
       transform="matrix(0.0352778,0,0,-0.0352778,-268.603,734.492)"
       clip-path="none" />
    <path
       d="m 4674,4845 c -9,-14 -15,-27 -13,-30 3,-2 12,10 21,26 21,36 15,39 -8,4 z"
       id="path987-2"
       transform="matrix(0.0352778,0,0,-0.0352778,-268.603,734.492)"
       clip-path="none" />
    <path
       d="m 4905,4603 c -117,-29 -334,-133 -293,-141 20,-4 32,-35 24,-65 -3,-12 -22,-39 -42,-60 -19,-20 -34,-43 -32,-49 2,-6 25,16 51,49 36,47 51,60 66,56 11,-3 30,2 43,11 33,23 71,20 104,-10 43,-38 86,-54 147,-54 54,0 120,20 132,40 4,6 18,1 37,-15 31,-26 87,-32 138,-14 18,6 12,7 -22,3 -49,-5 -103,11 -126,38 -11,13 -9,16 13,20 14,3 28,1 31,-3 9,-16 34,-10 28,6 -4,10 0,15 11,15 9,0 14,4 11,9 -3,4 37,11 89,15 78,5 102,3 132,-10 l 38,-17 -35,-7 -35,-6 40,-8 c 71,-13 73,-15 45,-38 -40,-34 -124,-68 -192,-80 -61,-10 -408,-4 -453,8 -18,4 -23,-3 -38,-49 -9,-29 -17,-59 -17,-64 0,-7 31,-1 75,13 42,13 82,24 89,24 15,0 66,-38 66,-49 0,-4 -25,-15 -55,-25 -30,-11 -69,-31 -87,-46 l -33,-28 85,29 c 77,25 100,28 242,31 l 157,2 33,59 c 44,79 159,187 200,187 52,0 68,16 67,63 -1,27 -3,33 -6,17 -3,-14 -8,-29 -13,-34 -5,-5 -40,17 -80,48 -90,70 -205,128 -267,133 -27,3 -75,-2 -108,-10 -50,-11 -69,-12 -115,-1 -56,13 -108,16 -145,7 z m 115,-169 c 9,-7 31,-20 49,-27 l 34,-15 -28,-18 c -18,-12 -52,-20 -94,-22 -56,-3 -71,0 -101,20 -36,24 -46,47 -36,75 5,13 18,14 84,8 42,-4 84,-13 92,-21 z"
       id="path989-2"
       transform="matrix(0.0352778,0,0,-0.0352778,-268.603,734.492)"
       clip-path="none" />
    <path
       d="m 4483,4555 c 0,-22 2,-30 4,-17 2,12 2,30 0,40 -3,9 -5,-1 -4,-23 z"
       id="path991-9"
       transform="matrix(0.0352778,0,0,-0.0352778,-268.603,734.492)"
       clip-path="none" />
    <path
       d="m 4558,4555 c -25,-47 -28,-84 -14,-165 l 13,-75 2,62 c 0,34 6,85 12,112 6,28 9,61 7,73 -3,22 -4,22 -20,-7 z"
       id="path993-9"
       transform="matrix(0.0352778,0,0,-0.0352778,-268.603,734.492)"
       clip-path="none" />
    <path
       d="m 4295,4460 c 10,-11 20,-20 23,-20 3,0 -3,9 -13,20 -10,11 -20,20 -23,20 -3,0 3,-9 13,-20 z"
       id="path995-4"
       transform="matrix(0.0352778,0,0,-0.0352778,-268.603,734.492)"
       clip-path="none" />
    <path
       d="m 4353,4392 c 27,-33 35,-57 57,-169 7,-35 19,-71 26,-80 13,-16 13,-15 5,7 -4,14 -11,48 -15,75 -11,82 -35,140 -68,171 l -32,29 z"
       id="path997-3"
       transform="matrix(0.0352778,0,0,-0.0352778,-268.603,734.492)"
       clip-path="none" />
    <path
       d="m 4461,4318 c 2,-122 16,-147 18,-30 1,62 -3,102 -9,102 -6,0 -10,-30 -9,-72 z"
       id="path999-2"
       transform="matrix(0.0352778,0,0,-0.0352778,-268.603,734.492)"
       clip-path="none" />
    <path
       d="m 4076,5034 c -11,-30 -6,-53 14,-59 21,-7 40,0 40,15 0,4 -9,6 -20,3 -15,-4 -20,0 -20,16 0,11 5,21 10,21 6,0 10,5 10,10 0,16 -27,11 -34,-6 z"
       id="path1001-1"
       transform="matrix(0.0352778,0,0,-0.0352778,-268.603,734.492)"
       clip-path="none" />
    <path
       d="m 4243,3439 -21,-22 94,-116 c 165,-204 202,-241 235,-241 16,0 29,3 29,7 0,10 -41,61 -168,211 -64,76 -124,148 -132,160 l -15,23 z"
       id="path1003-5"
       transform="matrix(0.0352778,0,0,-0.0352778,-268.603,734.492)"
       clip-path="none" />
    <path
       d="m 5946,3437 c -3,-13 -66,-99 -141,-192 -74,-93 -135,-172 -135,-176 0,-4 9,-11 21,-14 14,-5 28,0 46,17 36,33 236,279 259,317 l 19,32 -25,19 c -32,25 -37,25 -44,-3 z"
       id="path1005-5"
       transform="matrix(0.0352778,0,0,-0.0352778,-268.603,734.492)"
       clip-path="none" />
    <path
       d="m 3887,8153 c -10,-10 -8,-41 3,-48 20,-12 50,6 50,31 0,18 -5,24 -23,24 -13,0 -27,-3 -30,-7 z"
       id="path1007-0"
       transform="matrix(0.0352778,0,0,-0.0352778,-268.603,734.492)"
       clip-path="none" />
    <path
       d="m 4094,8106 c -11,-28 4,-48 33,-44 22,2 28,8 28,28 0,20 -6,26 -28,28 -18,2 -29,-2 -33,-12 z"
       id="path1009-75"
       transform="matrix(0.0352778,0,0,-0.0352778,-268.603,734.492)"
       clip-path="none" />
    <path
       d="m 3086,7022 c -9,-14 12,-35 28,-29 23,9 20,37 -3,37 -11,0 -22,-4 -25,-8 z"
       id="path1011-6"
       transform="matrix(0.0352778,0,0,-0.0352778,-268.603,734.492)"
       clip-path="none" />
    <path
       d="m 3190,7006 c 0,-2 7,-7 16,-10 8,-3 12,-2 9,4 -6,10 -25,14 -25,6 z"
       id="path1013-3"
       transform="matrix(0.0352778,0,0,-0.0352778,-268.603,734.492)"
       clip-path="none" />
    <path
       d="m 3205,6965 c -3,-11 -11,-28 -16,-37 -6,-12 -6,-18 1,-18 6,0 10,-35 10,-85 v -85 l -57,-1 c -54,-1 -56,-2 -26,-11 17,-6 47,-8 67,-4 l 35,7 3,107 c 2,59 0,116 -3,127 l -7,20 z"
       id="path1015-09"
       transform="matrix(0.0352778,0,0,-0.0352778,-268.603,734.492)"
       clip-path="none" />
    <path
       d="m 7115,6960 c -4,-6 -13,-9 -21,-6 -8,3 -31,-18 -59,-54 -56,-72 -45,-80 13,-11 39,46 45,49 78,44 31,-5 36,-4 32,13 -4,21 -33,31 -43,14 z"
       id="path1017-1"
       transform="matrix(0.0352778,0,0,-0.0352778,-268.603,734.492)"
       clip-path="none" />
    <path
       d="m 3012,6948 c -13,-13 2,-38 24,-38 15,0 36,34 27,44 -10,10 -38,7 -51,-6 z"
       id="path1019-6"
       transform="matrix(0.0352778,0,0,-0.0352778,-268.603,734.492)"
       clip-path="none" />
    <path
       d="m 3118,6888 c 17,-17 15,-77 -3,-84 -20,-8 -9,-24 17,-24 14,0 18,5 14,16 -3,9 -6,36 -6,60 0,35 -4,44 -17,44 -13,0 -14,-3 -5,-12 z"
       id="path1021-1"
       transform="matrix(0.0352778,0,0,-0.0352778,-268.603,734.492)"
       clip-path="none" />
    <path
       d="m 3050,6790 c 0,-5 5,-10 10,-10 6,0 10,5 10,10 0,6 -4,10 -10,10 -5,0 -10,-4 -10,-10 z"
       id="path1023-56"
       transform="matrix(0.0352778,0,0,-0.0352778,-268.603,734.492)"
       clip-path="none" />
    <path
       d="m 7805,6080 c -4,-6 -79,-10 -192,-10 -103,0 -184,-2 -182,-4 2,-2 97,-7 212,-11 182,-7 207,-6 207,8 0,8 -7,18 -16,21 -21,8 -22,8 -29,-4 z"
       id="path1025-4"
       transform="matrix(0.0352778,0,0,-0.0352778,-268.603,734.492)"
       clip-path="none" />
    <path
       d="m 7255,5790 c 10,-11 20,-20 23,-20 3,0 -3,9 -13,20 -10,11 -20,20 -23,20 -3,0 3,-9 13,-20 z"
       id="path1027-7"
       transform="matrix(0.0352778,0,0,-0.0352778,-268.603,734.492)"
       clip-path="none" />
    <path
       d="m 7502,5777 c -14,-16 -6,-27 20,-27 13,0 18,6 16,17 -4,22 -22,27 -36,10 z"
       id="path1029-0"
       transform="matrix(0.0352778,0,0,-0.0352778,-268.603,734.492)"
       clip-path="none" />
    <path
       d="m 7307,5749 c 12,-12 24,-21 27,-18 2,2 -8,13 -22,23 l -27,19 z"
       id="path1031-6"
       transform="matrix(0.0352778,0,0,-0.0352778,-268.603,734.492)"
       clip-path="none" />
    <path
       d="m 6608,5311 c -18,-16 -30,-32 -26,-36 6,-6 98,50 98,60 0,16 -45,0 -72,-24 z"
       id="path1033-4"
       transform="matrix(0.0352778,0,0,-0.0352778,-268.603,734.492)"
       clip-path="none" />
    <path
       d="m 6928,4605 c -11,-24 -10,-29 7,-41 24,-18 44,-15 59,9 14,22 -3,51 -32,55 -16,2 -25,-4 -34,-23 z"
       id="path1035-9"
       transform="matrix(0.0352778,0,0,-0.0352778,-268.603,734.492)"
       clip-path="none" />
    <path
       d="m 6963,4493 c -21,-7 -15,-33 7,-33 11,0 20,6 20,14 0,18 -11,25 -27,19 z"
       id="path1037-9"
       transform="matrix(0.0352778,0,0,-0.0352778,-268.603,734.492)"
       clip-path="none" />
    <path
       d="m 3237,4462 c -35,-38 -9,-102 40,-102 25,0 53,30 53,58 0,27 -33,62 -58,62 -11,0 -26,-8 -35,-18 z m 71,-30 c 7,-50 -49,-72 -70,-27 -14,32 5,57 41,53 18,-2 27,-10 29,-26 z"
       id="path1039-2"
       transform="matrix(0.0352778,0,0,-0.0352778,-268.603,734.492)"
       clip-path="none" />
    <path
       d="m 6960,4385 c -14,-16 -6,-35 16,-35 8,0 14,10 14,25 0,28 -12,32 -30,10 z"
       id="path1041-9"
       transform="matrix(0.0352778,0,0,-0.0352778,-268.603,734.492)"
       clip-path="none" />
    <path
       d="m 6950,4280 c -28,-28 -26,-68 5,-82 49,-22 88,48 47,85 -24,22 -28,21 -52,-3 z"
       id="path1043-9"
       transform="matrix(0.0352778,0,0,-0.0352778,-268.603,734.492)"
       clip-path="none" />
    <path
       d="m 3242,4278 c -31,-31 10,-104 46,-82 21,13 28,60 11,80 -14,17 -41,18 -57,2 z"
       id="path1045-1"
       transform="matrix(0.0352778,0,0,-0.0352778,-268.603,734.492)"
       clip-path="none" />
    <path
       d="m 2850,3987 c 0,-11 250,-260 256,-255 7,8 -223,252 -242,256 -8,2 -14,1 -14,-1 z"
       id="path1047-3"
       transform="matrix(0.0352778,0,0,-0.0352778,-268.603,734.492)"
       clip-path="none" />
    <path
       d="m 7260,3869 c -41,-38 -78,-69 -82,-69 -5,0 -8,-7 -8,-15 0,-8 4,-15 9,-15 15,0 175,156 165,162 -5,3 -43,-25 -84,-63 z"
       id="path1049-7"
       transform="matrix(0.0352778,0,0,-0.0352778,-268.603,734.492)"
       clip-path="none" />
    <path
       d="m 3636,2235 c -3,-8 2,-21 10,-30 20,-19 54,-3 54,25 0,15 -7,20 -29,20 -16,0 -31,-6 -35,-15 z"
       id="path1051-3"
       transform="matrix(0.0352778,0,0,-0.0352778,-268.603,734.492)"
       clip-path="none" />
    <path
       d="m 6764,2235 c -7,-18 3,-35 21,-35 18,0 26,25 12,39 -15,15 -27,14 -33,-4 z"
       id="path1053-6"
       transform="matrix(0.0352778,0,0,-0.0352778,-268.603,734.492)"
       clip-path="none" />
    <path
       d="m 37.956596,102.96164 q 0,2.53214 -1.601965,4.1341 -1.601964,1.60197 -4.134101,1.60197 H 13.410368 q -2.532138,0 -4.1341019,-1.60197 -1.6019643,-1.60196 -1.6019643,-4.1341 V 82.446163 H 14.857303 V 102.34153 H 30.773594 V 27.824346 h 7.183002 z"
       style="font-style:normal;font-variant:normal;font-weight:normal;font-stretch:normal;font-size:105.833px;line-height:1.25;font-family:'Agency FB';-inkscape-font-specification:'Agency FB, Normal';font-variant-ligatures:normal;font-variant-caps:normal;font-variant-numeric:normal;font-variant-east-asian:normal;letter-spacing:0px;word-spacing:0px;white-space:pre;shape-inside:url(#rect1121-0);stroke-width:0.758153"
       id="path1724"
       transform="matrix(1.23619,0,0,1.40734,16.3439,448.473)"
       clip-path="none" />
    <path
       d="m 78.832526,108.69771 h -6.769592 v -1.39526 q -4.134101,0.56844 -8.216527,1.0852 -4.960921,0.62012 -8.216526,0.62012 -5.581038,0 -5.581038,-5.58104 V 58.416697 h 6.769592 v 44.131533 l 15.244499,-0.41341 V 58.416697 h 6.769592 z"
       style="font-style:normal;font-variant:normal;font-weight:normal;font-stretch:normal;font-size:105.833px;line-height:1.25;font-family:'Agency FB';-inkscape-font-specification:'Agency FB, Normal';font-variant-ligatures:normal;font-variant-caps:normal;font-variant-numeric:normal;font-variant-east-asian:normal;letter-spacing:0px;word-spacing:0px;white-space:pre;shape-inside:url(#rect1121-0);stroke-width:0.758153"
       id="path1726"
       transform="matrix(1.23619,0,0,1.40734,16.3439,448.473)"
       clip-path="none" />
    <path
       d="M 97.229274,108.69771 H 90.459683 V 27.824346 h 6.769591 z"
       style="font-style:normal;font-variant:normal;font-weight:normal;font-stretch:normal;font-size:105.833px;line-height:1.25;font-family:'Agency FB';-inkscape-font-specification:'Agency FB, Normal';font-variant-ligatures:normal;font-variant-caps:normal;font-variant-numeric:normal;font-variant-east-asian:normal;letter-spacing:0px;word-spacing:0px;white-space:pre;shape-inside:url(#rect1121-0);stroke-width:0.758153"
       id="path1728"
       transform="matrix(1.23619,0,0,1.40734,16.3439,448.473)"
       clip-path="none" />
    <path
       d="m 116.19447,47.409652 h -6.97629 v -8.681613 h 6.97629 z m -0.10335,61.288058 h -6.76959 V 58.416697 h 6.76959 z"
       style="font-style:normal;font-variant:normal;font-weight:normal;font-stretch:normal;font-size:105.833px;line-height:1.25;font-family:'Agency FB';-inkscape-font-specification:'Agency FB, Normal';font-variant-ligatures:normal;font-variant-caps:normal;font-variant-numeric:normal;font-variant-east-asian:normal;letter-spacing:0px;word-spacing:0px;white-space:pre;shape-inside:url(#rect1121-0);stroke-width:0.758153"
       id="path1730"
       transform="matrix(1.23619,0,0,1.40734,16.3439,448.473)"
       clip-path="none" />
    <path
       d="m 156.1919,108.69771 h -6.76959 v -1.39526 q -4.08243,0.56844 -8.16485,1.0852 -5.06428,0.62012 -8.11318,0.62012 -5.63271,0 -5.63271,-5.58104 V 85.081653 q 0,-5.787743 5.83942,-5.787743 h 16.17467 V 64.152763 h -14.77941 v 8.578261 h -6.66624 v -8.474908 q 0,-5.839419 5.78774,-5.839419 h 16.53641 q 5.78774,0 5.78774,5.839419 z m -6.66624,-6.25283 V 84.668242 h -15.34785 v 18.086698 z"
       style="font-style:normal;font-variant:normal;font-weight:normal;font-stretch:normal;font-size:105.833px;line-height:1.25;font-family:'Agency FB';-inkscape-font-specification:'Agency FB, Normal';font-variant-ligatures:normal;font-variant-caps:normal;font-variant-numeric:normal;font-variant-east-asian:normal;letter-spacing:0px;word-spacing:0px;white-space:pre;shape-inside:url(#rect1121-0);stroke-width:0.758153"
       id="path1732"
       transform="matrix(1.23619,0,0,1.40734,16.3439,448.473)"
       clip-path="none" />
    <path
       d="m 196.34436,108.69771 h -6.87294 V 64.566174 l -15.14115,0.41341 v 43.718126 h -6.87294 V 58.416697 h 6.87294 v 1.39526 q 4.03075,-0.516763 8.11318,-1.085202 4.96092,-0.620115 8.16485,-0.620115 5.73606,0 5.73606,5.632713 z"
       style="font-style:normal;font-variant:normal;font-weight:normal;font-stretch:normal;font-size:105.833px;line-height:1.25;font-family:'Agency FB';-inkscape-font-specification:'Agency FB, Normal';font-variant-ligatures:normal;font-variant-caps:normal;font-variant-numeric:normal;font-variant-east-asian:normal;letter-spacing:0px;word-spacing:0px;white-space:pre;shape-inside:url(#rect1121-0);stroke-width:0.758153"
       id="path1734"
       transform="matrix(1.23619,0,0,1.40734,16.3439,448.473)"
       clip-path="none" />
    <path
       d="m 262.33496,94.073323 q 0,6.407857 -4.23745,10.541957 -4.18578,4.08243 -10.59364,4.08243 h -18.5001 V 27.824346 h 18.5001 q 6.45954,0 10.64531,4.134101 4.18578,4.082426 4.18578,10.490283 z m -7.183,-0.723467 V 43.068845 q 0,-3.979072 -2.53214,-6.407857 -2.48046,-2.480461 -6.45953,-2.480461 h -9.97352 v 68.161003 h 9.56011 q 4.18578,0 6.76959,-2.377112 2.63549,-2.428784 2.63549,-6.614562 z"
       style="font-style:normal;font-variant:normal;font-weight:normal;font-stretch:normal;font-size:105.833px;line-height:1.25;font-family:'Agency FB';-inkscape-font-specification:'Agency FB, Normal';font-variant-ligatures:normal;font-variant-caps:normal;font-variant-numeric:normal;font-variant-east-asian:normal;letter-spacing:0px;word-spacing:0px;white-space:pre;shape-inside:url(#rect1121-0);stroke-width:0.758153"
       id="path1736"
       transform="matrix(1.23619,0,0,1.40734,16.3439,448.473)"
       clip-path="none" />
    <path
       d="m 302.43575,58.416697 -12.09225,49.867603 -5.0126,19.48195 h -6.76959 l 5.06427,-19.48195 -12.4023,-49.867603 h 7.07965 l 8.57826,39.584023 8.68161,-39.584023 z"
       style="font-style:normal;font-variant:normal;font-weight:normal;font-stretch:normal;font-size:105.833px;line-height:1.25;font-family:'Agency FB';-inkscape-font-specification:'Agency FB, Normal';font-variant-ligatures:normal;font-variant-caps:normal;font-variant-numeric:normal;font-variant-east-asian:normal;letter-spacing:0px;word-spacing:0px;white-space:pre;shape-inside:url(#rect1121-0);stroke-width:0.758153"
       id="path1738"
       transform="matrix(1.23619,0,0,1.40734,16.3439,448.473)"
       clip-path="none" />
    <path
       d="m 339.74601,108.69771 h -6.87295 V 64.566174 l -15.14115,0.41341 v 43.718126 h -6.87294 V 58.416697 h 6.87294 v 1.39526 q 4.03075,-0.516763 8.11318,-1.085202 4.96092,-0.620115 8.16485,-0.620115 5.73607,0 5.73607,5.632713 z"
       style="font-style:normal;font-variant:normal;font-weight:normal;font-stretch:normal;font-size:105.833px;line-height:1.25;font-family:'Agency FB';-inkscape-font-specification:'Agency FB, Normal';font-variant-ligatures:normal;font-variant-caps:normal;font-variant-numeric:normal;font-variant-east-asian:normal;letter-spacing:0px;word-spacing:0px;white-space:pre;shape-inside:url(#rect1121-0);stroke-width:0.758153"
       id="path1740"
       transform="matrix(1.23619,0,0,1.40734,16.3439,448.473)"
       clip-path="none" />
    <path
       d="m 379.27836,108.69771 h -6.7696 v -1.39526 q -4.08242,0.56844 -8.16485,1.0852 -5.06427,0.62012 -8.11317,0.62012 -5.63271,0 -5.63271,-5.58104 V 85.081653 q 0,-5.787743 5.83941,-5.787743 h 16.17468 V 64.152763 H 357.8327 v 8.578261 h -6.66624 v -8.474908 q 0,-5.839419 5.78775,-5.839419 h 16.5364 q 5.78775,0 5.78775,5.839419 z m -6.66624,-6.25283 V 84.668242 h -15.34786 v 18.086698 z"
       style="font-style:normal;font-variant:normal;font-weight:normal;font-stretch:normal;font-size:105.833px;line-height:1.25;font-family:'Agency FB';-inkscape-font-specification:'Agency FB, Normal';font-variant-ligatures:normal;font-variant-caps:normal;font-variant-numeric:normal;font-variant-east-asian:normal;letter-spacing:0px;word-spacing:0px;white-space:pre;shape-inside:url(#rect1121-0);stroke-width:0.758153"
       id="path1742"
       transform="matrix(1.23619,0,0,1.40734,16.3439,448.473)"
       clip-path="none" />
    <path
       d="m 441.08318,108.69771 h -6.87295 V 64.566174 l -14.98612,0.41341 v 43.718126 h -6.82126 V 64.566174 l -14.98612,0.41341 v 43.718126 h -6.87294 V 58.416697 h 6.87294 v 1.39526 q 4.03075,-0.516763 8.0615,-1.085202 4.90924,-0.620115 8.11317,-0.620115 3.15225,0 4.65087,1.912022 4.3408,-0.568439 8.62993,-1.188554 5.63272,-0.723468 8.52659,-0.723468 5.68439,0 5.68439,5.632713 z"
       style="font-style:normal;font-variant:normal;font-weight:normal;font-stretch:normal;font-size:105.833px;line-height:1.25;font-family:'Agency FB';-inkscape-font-specification:'Agency FB, Normal';font-variant-ligatures:normal;font-variant-caps:normal;font-variant-numeric:normal;font-variant-east-asian:normal;letter-spacing:0px;word-spacing:0px;white-space:pre;shape-inside:url(#rect1121-0);stroke-width:0.758153"
       id="path1744"
       transform="matrix(1.23619,0,0,1.40734,16.3439,448.473)"
       clip-path="none" />
    <path
       d="m 459.53162,47.409652 h -6.9763 v -8.681613 h 6.9763 z m -0.10336,61.288058 h -6.76959 V 58.416697 h 6.76959 z"
       style="font-style:normal;font-variant:normal;font-weight:normal;font-stretch:normal;font-size:105.833px;line-height:1.25;font-family:'Agency FB';-inkscape-font-specification:'Agency FB, Normal';font-variant-ligatures:normal;font-variant-caps:normal;font-variant-numeric:normal;font-variant-east-asian:normal;letter-spacing:0px;word-spacing:0px;white-space:pre;shape-inside:url(#rect1121-0);stroke-width:0.758153"
       id="path1746"
       transform="matrix(1.23619,0,0,1.40734,16.3439,448.473)"
       clip-path="none" />
    <path
       d="m 499.01226,102.85829 q 0,5.83942 -5.78774,5.83942 h -16.3297 q -5.78774,0 -5.78774,-5.83942 V 64.256116 q 0,-5.839419 5.78774,-5.839419 h 16.3297 q 5.78774,0 5.78774,5.839419 v 10.025196 h -6.76959 v -9.818491 h -14.26265 v 38.188759 h 14.26265 V 91.437834 h 6.76959 z"
       style="font-style:normal;font-variant:normal;font-weight:normal;font-stretch:normal;font-size:105.833px;line-height:1.25;font-family:'Agency FB';-inkscape-font-specification:'Agency FB, Normal';font-variant-ligatures:normal;font-variant-caps:normal;font-variant-numeric:normal;font-variant-east-asian:normal;letter-spacing:0px;word-spacing:0px;white-space:pre;shape-inside:url(#rect1121-0);stroke-width:0.758153"
       id="path1748"
       transform="matrix(1.23619,0,0,1.40734,16.3439,448.473)"
       clip-path="none" />
    <path
       d="m 537.2527,102.85829 q 0,5.83942 -5.83941,5.83942 h -15.76127 q -5.83941,0 -5.83941,-5.83942 V 91.437834 h 6.76959 v 11.317106 h 13.90091 V 92.72974 L 512.49977,78.002004 q -2.58381,-2.067051 -2.58381,-5.374332 v -8.371556 q 0,-5.839419 5.83942,-5.839419 h 15.55455 q 5.83942,0 5.83942,5.839419 v 10.025196 h -6.66624 V 64.359468 H 516.5822 v 8.784966 l 18.13837,14.727737 q 2.53213,2.015375 2.53213,5.477685 z"
       style="font-style:normal;font-variant:normal;font-weight:normal;font-stretch:normal;font-size:105.833px;line-height:1.25;font-family:'Agency FB';-inkscape-font-specification:'Agency FB, Normal';font-variant-ligatures:normal;font-variant-caps:normal;font-variant-numeric:normal;font-variant-east-asian:normal;letter-spacing:0px;word-spacing:0px;white-space:pre;shape-inside:url(#rect1121-0);stroke-width:0.758153"
       id="path1750"
       transform="matrix(1.23619,0,0,1.40734,16.3439,448.473)"
       clip-path="none" />
  </g>
</svg>
